<?xml version="1.0" standalone="no"?>
 <!DOCTYPE svg PUBLIC "-//W3C//DTD SVG 1.1//EN" 
 "http://www.w3.org/Graphics/SVG/1.1/DTD/svg11.dtd"> 
<svg
  xmlns:svg="http://www.w3.org/2000/svg"
  xmlns="http://www.w3.org/2000/svg"
  xmlns:xlink="http://www.w3.org/1999/xlink"
  version="1.1"
  width="43.383200mm" height="21.996400mm" viewBox="0.000000 0.000000 43.383200 21.996400">
<title>SVG Image created as regulator_skola-B_Cu.svg date 2026/02/06 12:11:41 </title>
  <desc>Image generated by PCBNEW </desc>
<g style="fill:#000000; fill-opacity:1.000000;stroke:#000000; stroke-opacity:1.000000;
stroke-linecap:round; stroke-linejoin:round;"
 transform="translate(0 0) scale(1 1)">
<path style="fill:#000000; fill-opacity:1.000000; stroke:none;fill-rule:evenodd;"
d="M 5.387149,18.964285
4.731947,19.182685
4.731947,18.745884
Z" /> 
<path style="fill:#000000; fill-opacity:1.000000; stroke:none;fill-rule:evenodd;"
d="M 5.970043,19.730167
3.936709,19.730167
3.936709,18.451778
4.104161,18.451778
4.106927,18.490698
4.124377,18.525597
4.153853,18.551162
4.171753,18.559153
4.531947,18.679217
4.531947,19.249352
4.171753,19.369417
4.153853,19.377408
4.124377,19.402973
4.106927,19.437872
4.104161,19.476792
4.116499,19.513808
4.142064,19.543284
4.176963,19.560734
4.215883,19.563500
4.234999,19.559153
5.734999,19.059153
5.752899,19.051162
5.758298,19.046478
5.764688,19.043284
5.772903,19.033811
5.782376,19.025596
5.785570,19.019206
5.790253,19.013808
5.794218,19.001911
5.799825,18.990698
5.800331,18.983570
5.802591,18.976792
5.801702,18.964285
5.802591,18.951778
5.800331,18.944999
5.799825,18.937872
5.794218,18.926658
5.790253,18.914762
5.785570,18.909363
5.782376,18.902974
5.772903,18.894758
5.764688,18.885286
5.758298,18.882091
5.752899,18.877408
5.734999,18.869417
4.234999,18.369417
4.215883,18.365070
4.176963,18.367836
4.142064,18.385286
4.116499,18.414762
4.104161,18.451778
3.936709,18.451778
3.936709,17.392857
4.103376,17.392857
4.103376,17.535714
4.104348,17.545587
4.104161,17.548222
4.104948,17.551685
4.105297,17.555223
4.106308,17.557664
4.108508,17.567337
4.179937,17.781623
4.187928,17.799523
4.190283,17.802238
4.191658,17.805557
4.204094,17.820711
4.346951,17.963567
4.354617,17.969859
4.356350,17.971857
4.359359,17.973751
4.362104,17.976004
4.364542,17.977014
4.372940,17.982300
4.515797,18.053729
4.517225,18.054275
4.517805,18.054705
4.525975,18.057623
4.534106,18.060735
4.534828,18.060786
4.536266,18.061300
4.821979,18.132728
4.825360,18.133228
4.826724,18.133793
4.834074,18.134516
4.841372,18.135596
4.842830,18.135378
4.846233,18.135714
5.060519,18.135714
5.063921,18.135378
5.065380,18.135596
5.072676,18.134516
5.080028,18.133793
5.081392,18.133227
5.084772,18.132728
5.370486,18.061300
5.371923,18.060786
5.372646,18.060735
5.380776,18.057623
5.388947,18.054705
5.389526,18.054275
5.390955,18.053729
5.533811,17.982300
5.542209,17.977013
5.544647,17.976004
5.547390,17.973752
5.550402,17.971857
5.552134,17.969859
5.559801,17.963568
5.702657,17.820711
5.715094,17.805558
5.716469,17.802238
5.718824,17.799523
5.726815,17.781623
5.798244,17.567337
5.800443,17.557664
5.801455,17.555223
5.801803,17.551685
5.802591,17.548222
5.802403,17.545587
5.803376,17.535714
5.803376,17.392857
5.802403,17.382983
5.802591,17.380349
5.801803,17.376885
5.801455,17.373348
5.800443,17.370906
5.798244,17.361234
5.726815,17.146948
5.718824,17.129048
5.716469,17.126332
5.715094,17.123013
5.702657,17.107860
5.631230,17.036432
5.616076,17.023996
5.580028,17.009064
5.541010,17.009064
5.504962,17.023996
5.477372,17.051586
5.462440,17.087634
5.462440,17.126652
5.477372,17.162700
5.489808,17.177854
5.544544,17.232589
5.603376,17.409084
5.603376,17.519486
5.544544,17.695981
5.429854,17.810671
5.311326,17.869935
5.048210,17.935714
4.858542,17.935714
4.595424,17.869935
4.476896,17.810670
4.362207,17.695980
4.303376,17.519486
4.303376,17.409084
4.362207,17.232590
4.416943,17.177854
4.429380,17.162701
4.444311,17.126652
4.444311,17.087634
4.429380,17.051586
4.401790,17.023996
4.365742,17.009065
4.326724,17.009065
4.290675,17.023996
4.275522,17.036433
4.204094,17.107860
4.191658,17.123014
4.190283,17.126332
4.187928,17.129048
4.179937,17.146948
4.108508,17.361234
4.106308,17.370906
4.105297,17.373348
4.104948,17.376885
4.104161,17.380349
4.104348,17.382983
4.103376,17.392857
3.936709,17.392857
3.936709,15.301920
4.105297,15.301920
4.105297,15.340938
4.120229,15.376986
4.147819,15.404576
4.183867,15.419508
4.203376,15.421429
5.703376,15.421429
5.722885,15.419508
5.758933,15.404576
5.786523,15.376986
5.801455,15.340938
5.801455,15.301920
5.786523,15.265872
5.758933,15.238282
5.722885,15.223350
5.703376,15.221429
4.203376,15.221429
4.183867,15.223350
4.147819,15.238282
4.120229,15.265872
4.105297,15.301920
3.936709,15.301920
3.936709,13.756985
4.103620,13.756985
4.105297,13.763133
4.105297,13.769509
4.110388,13.781799
4.113887,13.794628
4.117789,13.799666
4.120229,13.805557
4.129634,13.814962
4.137777,13.825477
4.145952,13.831280
4.147819,13.833147
4.149651,13.833905
4.153762,13.836824
5.326820,14.507143
4.203376,14.507143
4.183867,14.509064
4.147819,14.523996
4.120229,14.551586
4.105297,14.587634
4.105297,14.626652
4.120229,14.662700
4.147819,14.690290
4.183867,14.705222
4.203376,14.707143
5.703376,14.707143
5.708393,14.706648
5.710361,14.706899
5.712907,14.706204
5.722885,14.705222
5.735171,14.700132
5.748004,14.696633
5.753045,14.692728
5.758933,14.690290
5.768333,14.680889
5.778853,14.672743
5.782017,14.667205
5.786523,14.662700
5.791611,14.650416
5.798212,14.638865
5.799015,14.632540
5.801455,14.626652
5.801455,14.613352
5.803132,14.600159
5.801455,14.594009
5.801455,14.587634
5.796365,14.575347
5.792866,14.562515
5.788961,14.557473
5.786523,14.551586
5.777122,14.542185
5.768976,14.531666
5.760798,14.525861
5.758933,14.523996
5.757101,14.523237
5.752990,14.520319
4.579932,13.850000
5.703376,13.850000
5.722885,13.848079
5.758933,13.833147
5.786523,13.805557
5.801455,13.769509
5.801455,13.730491
5.786523,13.694443
5.758933,13.666853
5.722885,13.651921
5.703376,13.650000
4.203376,13.650000
4.198358,13.650494
4.196391,13.650244
4.193844,13.650938
4.183867,13.651921
4.171576,13.657012
4.158748,13.660511
4.153709,13.664413
4.147819,13.666853
4.138413,13.676258
4.127899,13.684401
4.124736,13.689935
4.120229,13.694443
4.115140,13.706728
4.108540,13.718278
4.107736,13.724602
4.105297,13.730491
4.105297,13.743791
4.103620,13.756985
3.936709,13.756985
3.936709,13.483333
5.970043,13.483333
Z" /> 
<path style="fill:#000000; fill-opacity:1.000000; stroke:none;fill-rule:evenodd;"
d="M 41.047171,10.975302
41.161861,11.089991
41.221126,11.208519
41.286905,11.471636
41.286905,11.661305
41.221126,11.924422
41.161861,12.042950
41.047171,12.157639
40.870678,12.216471
40.629762,12.216471
40.629762,10.916471
40.870678,10.916471
Z" /> 
<path style="fill:#000000; fill-opacity:1.000000; stroke:none;fill-rule:evenodd;"
d="M 41.653572,12.583138
37.120238,12.583138
37.120238,11.459328
37.286905,11.459328
37.286905,11.673614
37.287240,11.677016
37.287023,11.678475
37.288102,11.685771
37.288826,11.693123
37.289391,11.694487
37.289891,11.697867
37.361319,11.983581
37.361832,11.985018
37.361884,11.985741
37.364995,11.993871
37.367914,12.002042
37.368343,12.002621
37.368890,12.004050
37.440319,12.146906
37.445605,12.155304
37.446615,12.157742
37.448866,12.160485
37.450762,12.163497
37.452759,12.165229
37.459051,12.172896
37.601908,12.315752
37.617061,12.328189
37.620380,12.329564
37.623096,12.331919
37.640996,12.339910
37.855282,12.411339
37.864954,12.413538
37.867396,12.414550
37.870933,12.414898
37.874397,12.415686
37.877031,12.415498
37.886905,12.416471
38.101191,12.416471
38.120700,12.414550
38.124020,12.413174
38.127604,12.412920
38.145913,12.405914
38.288769,12.334485
38.305360,12.324042
38.330924,12.294565
38.343263,12.257549
38.340497,12.218629
38.323047,12.183730
38.293571,12.158166
38.256555,12.145827
38.217635,12.148593
38.199326,12.155599
38.077583,12.216471
37.903132,12.216471
37.726637,12.157639
37.611947,12.042949
37.552683,11.924421
37.486905,11.661305
37.486905,11.471636
37.552683,11.208520
37.611947,11.089992
37.726637,10.975302
37.903132,10.916471
38.013535,10.916471
38.190028,10.975302
38.215476,11.000749
38.215476,11.359328
38.029762,11.359328
38.010253,11.361249
37.974205,11.376181
37.946615,11.403771
37.931683,11.439819
37.931683,11.478837
37.946615,11.514885
37.974205,11.542475
38.010253,11.557407
38.029762,11.559328
38.315476,11.559328
38.334985,11.557407
38.371033,11.542475
38.398623,11.514885
38.413555,11.478837
38.415476,11.459328
38.415476,10.959328
38.413555,10.939819
38.398623,10.903771
38.398623,10.903770
38.386186,10.888617
38.314759,10.817189
38.313884,10.816471
38.858333,10.816471
38.858333,12.316471
38.858827,12.321488
38.858577,12.323456
38.859271,12.326002
38.860254,12.335980
38.865345,12.348270
38.868844,12.361099
38.872746,12.366137
38.875186,12.372028
38.884591,12.381433
38.892734,12.391948
38.898268,12.395110
38.902776,12.399618
38.915061,12.404706
38.926611,12.411307
38.932935,12.412110
38.938824,12.414550
38.952125,12.414550
38.965318,12.416227
38.971467,12.414550
38.977842,12.414550
38.990132,12.409458
39.002961,12.405960
39.007999,12.402057
39.013890,12.399618
39.023295,12.390212
39.033810,12.382070
39.039613,12.373894
39.041480,12.372028
39.042238,12.370195
39.045157,12.366085
39.715476,11.193026
39.715476,12.316471
39.717397,12.335980
39.732329,12.372028
39.759919,12.399618
39.795967,12.414550
39.834985,12.414550
39.871033,12.399618
39.898623,12.372028
39.913555,12.335980
39.915476,12.316471
39.915476,10.816471
40.429762,10.816471
40.429762,12.316471
40.431683,12.335980
40.446615,12.372028
40.474205,12.399618
40.510253,12.414550
40.529762,12.416471
40.886905,12.416471
40.896778,12.415498
40.899413,12.415686
40.902876,12.414898
40.906414,12.414550
40.908855,12.413538
40.918528,12.411339
41.132814,12.339910
41.150714,12.331919
41.153429,12.329563
41.156748,12.328189
41.171902,12.315753
41.314758,12.172896
41.321050,12.165229
41.323048,12.163497
41.324942,12.160487
41.327195,12.157743
41.328205,12.155304
41.333491,12.146907
41.404920,12.004050
41.405466,12.002621
41.405896,12.002042
41.408814,11.993871
41.411926,11.985741
41.411977,11.985018
41.412491,11.983581
41.483919,11.697868
41.484419,11.694486
41.484984,11.693123
41.485707,11.685772
41.486787,11.678475
41.486569,11.677016
41.486905,11.673614
41.486905,11.459328
41.486569,11.455925
41.486787,11.454467
41.485707,11.447169
41.484984,11.439819
41.484419,11.438455
41.483919,11.435074
41.412491,11.149361
41.411977,11.147923
41.411926,11.147201
41.408814,11.139070
41.405896,11.130900
41.405466,11.130320
41.404920,11.128892
41.333491,10.986035
41.328205,10.977637
41.327195,10.975199
41.324942,10.972454
41.323048,10.969445
41.321050,10.967712
41.314758,10.960046
41.171902,10.817189
41.156748,10.804753
41.153429,10.803378
41.150714,10.801023
41.132814,10.793032
40.918528,10.721603
40.908855,10.719403
40.906414,10.718392
40.902876,10.718043
40.899413,10.717256
40.896778,10.717443
40.886905,10.716471
40.529762,10.716471
40.510253,10.718392
40.474205,10.733324
40.446615,10.760914
40.431683,10.796962
40.429762,10.816471
39.915476,10.816471
39.914981,10.811453
39.915232,10.809486
39.914537,10.806939
39.913555,10.796962
39.908465,10.784675
39.904966,10.771843
39.901061,10.766801
39.898623,10.760914
39.889222,10.751513
39.881076,10.740994
39.875538,10.737829
39.871033,10.733324
39.858749,10.728235
39.847198,10.721635
39.840873,10.720831
39.834985,10.718392
39.821685,10.718392
39.808492,10.716715
39.802343,10.718392
39.795967,10.718392
39.783680,10.723481
39.770848,10.726981
39.765806,10.730885
39.759919,10.733324
39.750518,10.742724
39.739999,10.750871
39.734194,10.759048
39.732329,10.760914
39.731570,10.762745
39.728652,10.766857
39.058333,11.939915
39.058333,10.816471
39.056412,10.796962
39.041480,10.760914
39.013890,10.733324
38.977842,10.718392
38.938824,10.718392
38.902776,10.733324
38.875186,10.760914
38.860254,10.796962
38.858333,10.816471
38.313884,10.816471
38.299605,10.804753
38.296286,10.803378
38.293571,10.801023
38.275671,10.793032
38.061385,10.721603
38.051712,10.719403
38.049271,10.718392
38.045733,10.718043
38.042270,10.717256
38.039635,10.717443
38.029762,10.716471
37.886905,10.716471
37.877031,10.717443
37.874397,10.717256
37.870933,10.718043
37.867396,10.718392
37.864954,10.719403
37.855282,10.721603
37.640996,10.793032
37.623096,10.801023
37.620380,10.803377
37.617061,10.804753
37.601908,10.817190
37.459051,10.960046
37.452759,10.967712
37.450762,10.969445
37.448866,10.972456
37.446615,10.975200
37.445605,10.977637
37.440319,10.986036
37.368890,11.128892
37.368343,11.130320
37.367914,11.130900
37.364995,11.139070
37.361884,11.147201
37.361832,11.147923
37.361319,11.149361
37.289891,11.435075
37.289391,11.438454
37.288826,11.439819
37.288102,11.447170
37.287023,11.454467
37.287240,11.455925
37.286905,11.459328
37.120238,11.459328
37.120238,10.549804
41.653572,10.549804
Z" /> 
<path style="fill:#000000; fill-opacity:1.000000; stroke:none;fill-rule:evenodd;"
d="M 41.580222,3.950195
36.978165,3.950195
36.978165,2.196035
37.144832,2.196035
37.149179,2.215151
37.649179,3.715151
37.657170,3.733051
37.661853,3.738450
37.665048,3.744840
37.674520,3.753055
37.682736,3.762528
37.689125,3.765722
37.694524,3.770405
37.706420,3.774370
37.717634,3.779977
37.724761,3.780483
37.731540,3.782743
37.744047,3.781854
37.756554,3.782743
37.763332,3.780483
37.770460,3.779977
37.781672,3.774370
37.793570,3.770405
37.798969,3.765721
37.805359,3.762527
37.813574,3.753055
37.823046,3.744840
37.826240,3.738450
37.830924,3.733051
37.838915,3.715151
38.063742,3.040671
38.572618,3.040671
38.572618,3.397814
38.574539,3.417323
38.575914,3.420643
38.576169,3.424227
38.583175,3.442536
38.654604,3.585392
38.659890,3.593790
38.660900,3.596228
38.663151,3.598971
38.665047,3.601983
38.667044,3.603715
38.673336,3.611382
38.744765,3.682811
38.752435,3.689105
38.754165,3.691100
38.757172,3.692993
38.759919,3.695247
38.762358,3.696257
38.770755,3.701543
38.913612,3.772971
38.931921,3.779977
38.935503,3.780231
38.938824,3.781607
38.958333,3.783528
39.315476,3.783528
39.334985,3.781607
39.338305,3.780231
39.341889,3.779977
39.360197,3.772971
39.503054,3.701543
39.511450,3.696257
39.513891,3.695247
39.516636,3.692993
39.519645,3.691100
39.521377,3.689102
39.529044,3.682810
39.600472,3.611381
39.612909,3.596228
39.627840,3.560179
39.627839,3.521161
39.612908,3.485113
39.585318,3.457523
39.549269,3.442592
39.510251,3.442593
39.474203,3.457524
39.459050,3.469961
39.399097,3.529914
39.291869,3.583528
38.981940,3.583528
38.874712,3.529914
38.826232,3.481434
38.772618,3.374205
38.772618,3.092591
40.074540,3.092591
40.074540,3.131609
40.089472,3.167657
40.117062,3.195247
40.153110,3.210179
40.172619,3.212100
40.644047,3.212100
40.644047,3.683528
40.645968,3.703037
40.660900,3.739085
40.688490,3.766675
40.724538,3.781607
40.763556,3.781607
40.799604,3.766675
40.827194,3.739085
40.842126,3.703037
40.844047,3.683528
40.844047,3.212100
41.315476,3.212100
41.334985,3.210179
41.371033,3.195247
41.398623,3.167657
41.413555,3.131609
41.413555,3.092591
41.398623,3.056543
41.371033,3.028953
41.334985,3.014021
41.315476,3.012100
40.844047,3.012100
40.844047,2.540671
40.842126,2.521162
40.827194,2.485114
40.799604,2.457524
40.763556,2.442592
40.724538,2.442592
40.688490,2.457524
40.660900,2.485114
40.645968,2.521162
40.644047,2.540671
40.644047,3.012100
40.172619,3.012100
40.153110,3.014021
40.117062,3.028953
40.089472,3.056543
40.074540,3.092591
38.772618,3.092591
38.772618,3.064279
38.826232,2.957050
38.874712,2.908570
38.981940,2.854957
39.291869,2.854957
39.399097,2.908570
39.459050,2.968524
39.474203,2.980961
39.478857,2.982889
39.482753,2.986076
39.496744,2.990297
39.510251,2.995892
39.515286,2.995892
39.520108,2.997347
39.534653,2.995892
39.549269,2.995893
39.553921,2.993965
39.558932,2.993465
39.571809,2.986557
39.585318,2.980962
39.588880,2.977399
39.593316,2.975020
39.602565,2.963714
39.612908,2.953372
39.614836,2.948715
39.618023,2.944821
39.622243,2.930832
39.627839,2.917324
39.627839,2.912288
39.629294,2.907467
39.629265,2.887863
39.557837,2.173578
39.556412,2.166469
39.556412,2.164019
39.555460,2.161721
39.553984,2.154357
39.547074,2.141476
39.541480,2.127971
39.537919,2.124410
39.535539,2.119973
39.524226,2.110717
39.513890,2.100381
39.509237,2.098453
39.505341,2.095266
39.491351,2.091045
39.477842,2.085449
39.470364,2.084712
39.467986,2.083995
39.465549,2.084238
39.458333,2.083528
38.744047,2.083528
38.724538,2.085449
38.688490,2.100381
38.660900,2.127971
38.645968,2.164019
38.645968,2.203037
38.660900,2.239085
38.688490,2.266675
38.724538,2.281607
38.744047,2.283528
39.367834,2.283528
39.408444,2.689637
39.360197,2.665514
39.341889,2.658508
39.338305,2.658253
39.334985,2.656878
39.315476,2.654957
38.958333,2.654957
38.938824,2.656878
38.935503,2.658253
38.931921,2.658508
38.913612,2.665514
38.770755,2.736942
38.762358,2.742227
38.759919,2.743238
38.757172,2.745491
38.754165,2.747385
38.752435,2.749379
38.744765,2.755674
38.673336,2.827103
38.667044,2.834769
38.665047,2.836502
38.663151,2.839513
38.660900,2.842257
38.659890,2.844694
38.654604,2.853093
38.583175,2.995949
38.576169,3.014258
38.575914,3.017841
38.574539,3.021162
38.572618,3.040671
38.063742,3.040671
38.338915,2.215151
38.343262,2.196035
38.340496,2.157115
38.323046,2.122216
38.293570,2.096651
38.256554,2.084313
38.217634,2.087079
38.182736,2.104528
38.157170,2.134005
38.149179,2.151905
37.744047,3.367301
37.338915,2.151905
37.330924,2.134005
37.305359,2.104529
37.270460,2.087079
37.231540,2.084313
37.194524,2.096651
37.165048,2.122216
37.147598,2.157115
37.144832,2.196035
36.978165,2.196035
36.978165,1.916861
41.580222,1.916861
Z" /> 
<path style="fill:#000000; fill-opacity:1.000000; stroke:none;fill-rule:evenodd;"
d="M 41.131927,19.931677
41.177891,20.023606
41.177891,20.333535
41.144659,20.400000
40.796619,20.400000
40.802912,20.383555
40.803166,20.379971
40.804542,20.376651
40.806463,20.357142
40.806463,20.023606
40.852426,19.931677
40.944355,19.885714
41.039998,19.885714
Z" /> 
<path style="fill:#000000; fill-opacity:1.000000; stroke:none;fill-rule:evenodd;"
d="M 38.717011,18.395963
38.762975,18.487892
38.762975,18.797821
38.729743,18.864286
38.381703,18.864286
38.387996,18.847841
38.388250,18.844257
38.389626,18.840937
38.391547,18.821428
38.391547,18.487892
38.437510,18.395963
38.529439,18.350000
38.625082,18.350000
Z" /> 
<path style="fill:#000000; fill-opacity:1.000000; stroke:none;fill-rule:evenodd;"
d="M 38.660881,15.046470
38.709361,15.094950
38.762975,15.202177
38.762975,15.369250
38.709361,15.476477
38.660881,15.524957
38.553654,15.578571
38.172296,15.578571
38.065067,15.524957
38.016591,15.476480
37.962975,15.369248
37.962975,15.202179
38.016591,15.094947
38.065067,15.046470
38.172296,14.992857
38.553654,14.992857
Z" /> 
<path style="fill:#000000; fill-opacity:1.000000; stroke:none;fill-rule:evenodd;"
d="M 41.544558,20.766667
37.025028,20.766667
37.025028,19.612585
37.191695,19.612585
37.201378,19.650383
37.211547,19.667143
37.380832,19.892857
37.211547,20.118571
37.201378,20.135331
37.191695,20.173129
37.197213,20.211755
37.217092,20.245329
37.248307,20.268740
37.286105,20.278423
37.324731,20.272905
37.358305,20.253026
37.371547,20.238571
37.585832,19.952857
37.596001,19.936097
37.597365,19.930768
37.600166,19.926040
37.602168,19.912022
37.605684,19.898300
37.604906,19.892857
37.605684,19.887414
37.602168,19.873691
37.600166,19.859674
37.597365,19.854945
37.596001,19.849617
37.585832,19.832857
37.577261,19.821429
37.762975,19.821429
37.762975,20.035714
37.764896,20.055223
37.766271,20.058543
37.766526,20.062127
37.773532,20.080436
37.844961,20.223292
37.855404,20.239883
37.884881,20.265447
37.921897,20.277786
37.960817,20.275020
37.995716,20.257570
38.021280,20.228094
38.033619,20.191078
38.030853,20.152158
38.023847,20.133849
37.962975,20.012105
37.962975,19.845036
38.008939,19.753106
38.100868,19.707143
38.125082,19.707143
38.217011,19.753106
38.262975,19.845035
38.262975,20.035714
38.264896,20.055223
38.266271,20.058543
38.266526,20.062127
38.273532,20.080436
38.344961,20.223292
38.347015,20.226555
38.347528,20.228094
38.349189,20.230009
38.355404,20.239883
38.364876,20.248098
38.373092,20.257571
38.382966,20.263787
38.384881,20.265447
38.386417,20.265959
38.389682,20.268014
38.532539,20.339443
38.550848,20.346449
38.554431,20.346703
38.557752,20.348079
38.577261,20.350000
38.648689,20.350000
38.668198,20.348079
38.671518,20.346703
38.675102,20.346449
38.693410,20.339443
38.836268,20.268014
38.839531,20.265959
38.841070,20.265447
38.842985,20.263785
38.852859,20.257571
38.861076,20.248095
38.870547,20.239882
38.876760,20.230010
38.878423,20.228094
38.878936,20.226555
38.880990,20.223292
38.952418,20.080435
38.959424,20.062126
38.959678,20.058543
38.961054,20.055223
38.962975,20.035714
38.962975,20.000000
40.177891,20.000000
40.177891,20.285714
40.179812,20.305223
40.181187,20.308543
40.181442,20.312127
40.188448,20.330436
40.259877,20.473292
40.261931,20.476555
40.262444,20.478094
40.264105,20.480009
40.270320,20.489883
40.279792,20.498098
40.288008,20.507571
40.297882,20.513787
40.299797,20.515447
40.301333,20.515959
40.304598,20.518014
40.447455,20.589443
40.465764,20.596449
40.469347,20.596703
40.472668,20.598079
40.492177,20.600000
41.277891,20.600000
41.297400,20.598079
41.333448,20.583147
41.361038,20.555557
41.375970,20.519509
41.375970,20.480491
41.361038,20.444443
41.351042,20.434447
41.367334,20.401863
41.374341,20.383554
41.374595,20.379968
41.375970,20.376651
41.377891,20.357142
41.377891,20.000000
41.375970,19.980491
41.374595,19.977173
41.374341,19.973588
41.367334,19.955279
41.295906,19.812421
41.293852,19.809158
41.293339,19.807619
41.291676,19.805702
41.285463,19.795831
41.275991,19.787616
41.267775,19.778142
41.257904,19.771929
41.255987,19.770266
41.254446,19.769752
41.251184,19.767699
41.108326,19.696271
41.090017,19.689265
41.086434,19.689010
41.083114,19.687635
41.063605,19.685714
40.920748,19.685714
40.901239,19.687635
40.897918,19.689010
40.894336,19.689265
40.876027,19.696271
40.733170,19.767699
40.729907,19.769752
40.728368,19.770266
40.726451,19.771928
40.716580,19.778142
40.708366,19.787612
40.698891,19.795830
40.692676,19.805703
40.691015,19.807619
40.690502,19.809157
40.688448,19.812421
40.617020,19.955279
40.610014,19.973588
40.609759,19.977170
40.608384,19.980491
40.606463,20.000000
40.606463,20.333535
40.573231,20.400000
40.515784,20.400000
40.423856,20.354035
40.377891,20.262105
40.377891,20.023607
40.438763,19.901863
40.445769,19.883555
40.448535,19.844635
40.436196,19.807619
40.410632,19.778142
40.375733,19.760693
40.336813,19.757927
40.299797,19.770266
40.270320,19.795830
40.259877,19.812421
40.188448,19.955279
40.181442,19.973587
40.181187,19.977170
40.179812,19.980491
40.177891,20.000000
38.962975,20.000000
38.962975,19.750000
38.961054,19.730491
38.959678,19.727170
38.959424,19.723588
38.952418,19.705279
38.880990,19.562422
38.870547,19.545832
38.841070,19.520267
38.804055,19.507928
38.765134,19.510694
38.730236,19.528143
38.704671,19.557620
38.692332,19.594635
38.695098,19.633556
38.702104,19.651864
38.762975,19.773606
38.762975,20.012107
38.717011,20.104035
38.625082,20.150000
38.600868,20.150000
38.508940,20.104035
38.462975,20.012105
38.462975,19.821429
38.461054,19.801920
38.459679,19.798602
38.459425,19.795017
38.452418,19.776708
38.380990,19.633850
38.378936,19.630587
38.378423,19.629048
38.376760,19.627131
38.370547,19.617260
38.361075,19.609045
38.352859,19.599571
38.342988,19.593358
38.341071,19.591695
38.339530,19.591181
38.336268,19.589128
38.193410,19.517700
38.175101,19.510694
38.171518,19.510439
38.168198,19.509064
38.148689,19.507143
38.077261,19.507143
38.057752,19.509064
38.054431,19.510439
38.050849,19.510694
38.032540,19.517700
37.889683,19.589128
37.886419,19.591181
37.884881,19.591695
37.882964,19.593357
37.873093,19.599571
37.864879,19.609041
37.855404,19.617259
37.849189,19.627132
37.847528,19.629048
37.847015,19.630586
37.844961,19.633850
37.773532,19.776708
37.766526,19.795016
37.766271,19.798599
37.764896,19.801920
37.762975,19.821429
37.577261,19.821429
37.371547,19.547143
37.358305,19.532688
37.324731,19.512809
37.286105,19.507291
37.248307,19.516974
37.217092,19.540385
37.197213,19.573959
37.191695,19.612585
37.025028,19.612585
37.025028,18.730491
37.193468,18.730491
37.193469,18.769509
37.208400,18.805558
37.235990,18.833147
37.272038,18.848079
37.311056,18.848078
37.347105,18.833147
37.362258,18.820711
37.576543,18.606425
37.588979,18.591272
37.603910,18.555223
37.603910,18.516205
37.588979,18.480157
37.573108,18.464286
37.762975,18.464286
37.762975,18.750000
37.764896,18.769509
37.766271,18.772829
37.766526,18.776413
37.773532,18.794722
37.844961,18.937578
37.847015,18.940841
37.847528,18.942380
37.849189,18.944295
37.855404,18.954169
37.864876,18.962384
37.873092,18.971857
37.882966,18.978073
37.884881,18.979733
37.886417,18.980245
37.889682,18.982300
38.032539,19.053729
38.050848,19.060735
38.054431,19.060989
38.057752,19.062365
38.077261,19.064286
38.862975,19.064286
38.882484,19.062365
38.918532,19.047433
38.946122,19.019843
38.961054,18.983795
38.961054,18.980490
39.679812,18.980490
39.679812,19.019508
39.694744,19.055556
39.722334,19.083146
39.758382,19.098078
39.777891,19.099999
40.177891,19.099999
40.177891,19.357142
40.179812,19.376651
40.194744,19.412699
40.222334,19.440289
40.258382,19.455221
40.297400,19.455221
40.333448,19.440289
40.361038,19.412699
40.375970,19.376651
40.377891,19.357142
40.377891,19.099999
41.039998,19.099999
41.131927,19.145963
41.177891,19.237891
41.177891,19.357142
41.179812,19.376651
41.194744,19.412699
41.222334,19.440289
41.258382,19.455221
41.297400,19.455221
41.333448,19.440289
41.361038,19.412699
41.375970,19.376651
41.377891,19.357142
41.377891,19.214285
41.375970,19.194776
41.374594,19.191455
41.374340,19.187873
41.367334,19.169564
41.295906,19.026707
41.293852,19.023443
41.293339,19.021905
41.291676,19.019988
41.285463,19.010117
41.275992,19.001903
41.267775,18.992428
41.257901,18.986213
41.255986,18.984552
41.254447,18.984039
41.251184,18.981985
41.108326,18.910556
41.090018,18.903550
41.086434,18.903295
41.083114,18.901920
41.063605,18.899999
40.377891,18.899999
40.377891,18.785714
40.375970,18.766205
40.361038,18.730157
40.333448,18.702567
40.297400,18.687635
40.258382,18.687635
40.222334,18.702567
40.194744,18.730157
40.179812,18.766205
40.177891,18.785714
40.177891,18.899999
39.777891,18.899999
39.758382,18.901920
39.722334,18.916852
39.694744,18.944442
39.679812,18.980490
38.961054,18.980490
38.961054,18.944777
38.946122,18.908729
38.936126,18.898733
38.952418,18.866149
38.959425,18.847840
38.959679,18.844254
38.961054,18.840937
38.962975,18.821428
38.962975,18.464286
38.961054,18.444777
38.959679,18.441459
38.959425,18.437874
38.952418,18.419565
38.880990,18.276707
38.878936,18.273444
38.878423,18.271905
38.876760,18.269988
38.870547,18.260117
38.861075,18.251902
38.852859,18.242428
38.842988,18.236215
38.841071,18.234552
38.839530,18.234038
38.836268,18.231985
38.693410,18.160557
38.675101,18.153551
38.671518,18.153296
38.668198,18.151921
38.648689,18.150000
38.505832,18.150000
38.486323,18.151921
38.483002,18.153296
38.479420,18.153551
38.461111,18.160557
38.318254,18.231985
38.314991,18.234038
38.313452,18.234552
38.311535,18.236214
38.301664,18.242428
38.293450,18.251898
38.283975,18.260116
38.277760,18.269989
38.276099,18.271905
38.275586,18.273443
38.273532,18.276707
38.202104,18.419565
38.195098,18.437874
38.194843,18.441456
38.193468,18.444777
38.191547,18.464286
38.191547,18.797821
38.158315,18.864286
38.100868,18.864286
38.008940,18.818321
37.962975,18.726391
37.962975,18.487893
38.023847,18.366149
38.030853,18.347841
38.033619,18.308921
38.021280,18.271905
37.995716,18.242428
37.960817,18.224979
37.921897,18.222213
37.884881,18.234552
37.855404,18.260116
37.844961,18.276707
37.773532,18.419565
37.766526,18.437873
37.766271,18.441456
37.764896,18.444777
37.762975,18.464286
37.573108,18.464286
37.561389,18.452567
37.525341,18.437636
37.486322,18.437636
37.450274,18.452567
37.435121,18.465004
37.220836,18.679289
37.208400,18.694443
37.193468,18.730491
37.025028,18.730491
37.025028,16.535714
37.762975,16.535714
37.762975,16.750000
37.764896,16.769509
37.766271,16.772829
37.766526,16.776413
37.773532,16.794722
37.844961,16.937578
37.847015,16.940841
37.847528,16.942380
37.849189,16.944295
37.855404,16.954169
37.864876,16.962384
37.866525,16.964285
37.864879,16.966184
37.855404,16.974402
37.849189,16.984275
37.847528,16.986191
37.847015,16.987729
37.844961,16.990993
37.773532,17.133849
37.766526,17.152158
37.766271,17.155741
37.764896,17.159062
37.762975,17.178571
37.762975,17.392857
37.764896,17.412366
37.766271,17.415686
37.766526,17.419270
37.773532,17.437579
37.844961,17.580435
37.847015,17.583698
37.847528,17.585237
37.849189,17.587152
37.855404,17.597026
37.864876,17.605241
37.873092,17.614714
37.882966,17.620930
37.884881,17.622590
37.886417,17.623102
37.889682,17.625157
38.032539,17.696586
38.050848,17.703592
38.054431,17.703846
38.057752,17.705222
38.077261,17.707143
38.862975,17.707143
38.882484,17.705222
38.918532,17.690290
38.946122,17.662700
38.961054,17.626652
38.961054,17.623347
39.679812,17.623347
39.679812,17.662365
39.694744,17.698413
39.722334,17.726003
39.758382,17.740935
39.777891,17.742856
40.223230,17.742856
40.188448,17.812420
40.181442,17.830729
40.181187,17.834312
40.179812,17.837633
40.177891,17.857142
40.177891,18.071428
40.179812,18.090937
40.181187,18.094257
40.181442,18.097841
40.188448,18.116150
40.259877,18.259006
40.261931,18.262269
40.262444,18.263808
40.264105,18.265723
40.270320,18.275597
40.279792,18.283812
40.288008,18.293285
40.297882,18.299501
40.299797,18.301161
40.301333,18.301673
40.304598,18.303728
40.447455,18.375157
40.465764,18.382163
40.469347,18.382417
40.472668,18.383793
40.492177,18.385714
41.277891,18.385714
41.297400,18.383793
41.333448,18.368861
41.361038,18.341271
41.375970,18.305223
41.375970,18.266205
41.361038,18.230157
41.333448,18.202567
41.297400,18.187635
41.277891,18.185714
40.515784,18.185714
40.423856,18.139749
40.377891,18.047819
40.377891,17.880750
40.431507,17.773518
40.462169,17.742856
41.277891,17.742856
41.297400,17.740935
41.333448,17.726003
41.361038,17.698413
41.375970,17.662365
41.375970,17.623347
41.361038,17.587299
41.333448,17.559709
41.297400,17.544777
41.277891,17.542856
39.777891,17.542856
39.758382,17.544777
39.722334,17.559709
39.694744,17.587299
39.679812,17.623347
38.961054,17.623347
38.961054,17.587634
38.946122,17.551586
38.918532,17.523996
38.882484,17.509064
38.862975,17.507143
38.100868,17.507143
38.008940,17.461178
37.962975,17.369248
37.962975,17.202179
38.008940,17.110249
38.100868,17.064286
38.862975,17.064286
38.882484,17.062365
38.918532,17.047433
38.946122,17.019843
38.961054,16.983795
38.961054,16.944777
38.946122,16.908729
38.918532,16.881139
38.882484,16.866207
38.862975,16.864286
38.100868,16.864286
38.008940,16.818321
37.962975,16.726391
37.962975,16.571428
40.177891,16.571428
40.177891,16.857142
40.179812,16.876651
40.181187,16.879971
40.181442,16.883555
40.188448,16.901863
40.259877,17.044721
40.270320,17.061312
40.299797,17.086876
40.336813,17.099215
40.375733,17.096449
40.410632,17.079000
40.436196,17.049523
40.448535,17.012507
40.445769,16.973587
40.438763,16.955279
40.377891,16.833535
40.377891,16.595036
40.431507,16.487804
40.479983,16.439327
40.587212,16.385714
40.968570,16.385714
41.075797,16.439327
41.124277,16.487807
41.177891,16.595034
41.177891,16.833535
41.117020,16.955279
41.110014,16.973588
41.107248,17.012508
41.119587,17.049524
41.145152,17.079000
41.180051,17.096449
41.218971,17.099215
41.255987,17.086876
41.285463,17.061311
41.295906,17.044721
41.367334,16.901863
41.374341,16.883554
41.374595,16.879968
41.375970,16.876651
41.377891,16.857142
41.377891,16.571428
41.375970,16.551919
41.374594,16.548598
41.374340,16.545016
41.367334,16.526707
41.295906,16.383850
41.290620,16.375453
41.289610,16.373014
41.287356,16.370267
41.285463,16.367260
41.283468,16.365530
41.277174,16.357860
41.205745,16.286431
41.198078,16.280139
41.196346,16.278142
41.193334,16.276246
41.190591,16.273995
41.188153,16.272985
41.179755,16.267699
41.036898,16.196271
41.018590,16.189265
41.015006,16.189010
41.011686,16.187635
40.992177,16.185714
40.563605,16.185714
40.544096,16.187635
40.540775,16.189010
40.537193,16.189265
40.518884,16.196271
40.376027,16.267699
40.367631,16.272983
40.365190,16.273995
40.362442,16.276250
40.359437,16.278142
40.357706,16.280136
40.350037,16.286432
40.278609,16.357861
40.272316,16.365527
40.270320,16.367259
40.268426,16.370266
40.266172,16.373014
40.265160,16.375455
40.259877,16.383850
40.188448,16.526706
40.181442,16.545015
40.181187,16.548598
40.179812,16.551919
40.177891,16.571428
37.962975,16.571428
37.962975,16.559322
38.016591,16.452090
38.047253,16.421428
38.862975,16.421428
38.882484,16.419507
38.918532,16.404575
38.946122,16.376985
38.961054,16.340937
38.961054,16.301919
38.946122,16.265871
38.918532,16.238281
38.882484,16.223349
38.862975,16.221428
37.862975,16.221428
37.843466,16.223349
37.807418,16.238281
37.779828,16.265871
37.764896,16.301919
37.764896,16.340937
37.779828,16.376985
37.807418,16.404575
37.815141,16.407774
37.773532,16.490992
37.766526,16.509301
37.766271,16.512884
37.764896,16.516205
37.762975,16.535714
37.025028,16.535714
37.025028,15.178571
37.762975,15.178571
37.762975,15.392857
37.764896,15.412366
37.766271,15.415686
37.766526,15.419270
37.773532,15.437579
37.844961,15.580435
37.850244,15.588829
37.851256,15.591271
37.853510,15.594018
37.855404,15.597026
37.857400,15.598757
37.863693,15.606424
37.935121,15.677853
37.942790,15.684148
37.944521,15.686143
37.947526,15.688034
37.950274,15.690290
37.952715,15.691301
37.961111,15.696586
38.103968,15.768014
38.122277,15.775020
38.125859,15.775274
38.129180,15.776650
38.148689,15.778571
38.577261,15.778571
38.596770,15.776650
38.600090,15.775274
38.603674,15.775020
38.621982,15.768014
38.764839,15.696586
38.773237,15.691299
38.775675,15.690290
38.778418,15.688038
38.781430,15.686143
38.783162,15.684145
38.790829,15.677854
38.862258,15.606425
38.868552,15.598754
38.870547,15.597025
38.872440,15.594017
38.874694,15.591271
38.875704,15.588831
38.880990,15.580435
38.952418,15.437578
38.959424,15.419269
38.959678,15.415686
38.961054,15.412366
38.962975,15.392857
38.962975,15.178571
38.961054,15.159062
38.959678,15.155741
38.959424,15.152159
38.952418,15.133850
38.880990,14.990993
38.875704,14.982596
38.874832,14.980490
40.179812,14.980490
40.179812,15.019508
40.194744,15.055556
40.222334,15.083146
40.258382,15.098078
40.277891,15.099999
41.039998,15.099999
41.131927,15.145963
41.177891,15.237891
41.177891,15.404964
41.124277,15.512191
41.093612,15.542857
40.277891,15.542857
40.258382,15.544778
40.222334,15.559710
40.194744,15.587300
40.179812,15.623348
40.179812,15.662366
40.194744,15.698414
40.222334,15.726004
40.258382,15.740936
40.277891,15.742857
41.277891,15.742857
41.297400,15.740936
41.333448,15.726004
41.361038,15.698414
41.375970,15.662366
41.375970,15.623348
41.361038,15.587300
41.333448,15.559710
41.325724,15.556510
41.367334,15.473292
41.374340,15.454983
41.374594,15.451400
41.375970,15.448080
41.377891,15.428571
41.377891,15.214285
41.375970,15.194776
41.374594,15.191455
41.374340,15.187873
41.367334,15.169564
41.295906,15.026707
41.293852,15.023443
41.293339,15.021905
41.291676,15.019988
41.285463,15.010117
41.275992,15.001903
41.267775,14.992428
41.257901,14.986213
41.255986,14.984552
41.254447,14.984039
41.251184,14.981985
41.108326,14.910556
41.090018,14.903550
41.086434,14.903295
41.083114,14.901920
41.063605,14.899999
40.277891,14.899999
40.258382,14.901920
40.222334,14.916852
40.194744,14.944442
40.179812,14.980490
38.874832,14.980490
38.874694,14.980157
38.872440,14.977410
38.870547,14.974403
38.868552,14.972673
38.862258,14.965003
38.790829,14.893574
38.783162,14.887282
38.781430,14.885285
38.778418,14.883389
38.775675,14.881138
38.773237,14.880128
38.764839,14.874842
38.621982,14.803414
38.603674,14.796408
38.600090,14.796153
38.596770,14.794778
38.577261,14.792857
38.148689,14.792857
38.129180,14.794778
38.125859,14.796153
38.122277,14.796408
38.103968,14.803414
37.961111,14.874842
37.952715,14.880126
37.950274,14.881138
37.947526,14.883393
37.944521,14.885285
37.942790,14.887279
37.935121,14.893575
37.863693,14.965004
37.857400,14.972670
37.855404,14.974402
37.853510,14.977409
37.851256,14.980157
37.850244,14.982598
37.844961,14.990993
37.773532,15.133849
37.766526,15.152158
37.766271,15.155741
37.764896,15.159062
37.762975,15.178571
37.025028,15.178571
37.025028,13.607143
37.262975,13.607143
37.262975,14.464286
37.264896,14.483795
37.279828,14.519843
37.307418,14.547433
37.343466,14.562365
37.382484,14.562365
37.418532,14.547433
37.446122,14.519843
37.461054,14.483795
37.462975,14.464286
37.462975,14.135714
38.862975,14.135714
38.882484,14.133793
38.918532,14.118861
38.946122,14.091271
38.961054,14.055223
38.961054,14.016205
38.946122,13.980157
38.918532,13.952567
38.882484,13.937635
38.862975,13.935714
37.462975,13.935714
37.462975,13.607143
37.461054,13.587634
37.446122,13.551586
37.418532,13.523996
37.382484,13.509064
37.343466,13.509064
37.307418,13.523996
37.279828,13.551586
37.264896,13.587634
37.262975,13.607143
37.025028,13.607143
37.025028,13.480490
39.679812,13.480490
39.679812,13.519508
39.694744,13.555556
39.722334,13.583146
39.758382,13.598078
39.777891,13.599999
40.393613,13.599999
39.707180,14.286431
39.694744,14.301585
39.679812,14.337633
39.679812,14.376651
39.694744,14.412699
39.722334,14.440289
39.758382,14.455221
39.797400,14.455221
39.833448,14.440289
39.848602,14.427853
40.430131,13.846322
41.217891,14.437142
41.234651,14.447311
41.272449,14.456994
41.311075,14.451476
41.344649,14.431597
41.368060,14.400382
41.377743,14.362585
41.372225,14.323959
41.352346,14.290384
41.337891,14.277142
40.572988,13.703465
40.676455,13.599999
41.277891,13.599999
41.297400,13.598078
41.333448,13.583146
41.361038,13.555556
41.375970,13.519508
41.375970,13.480490
41.361038,13.444442
41.333448,13.416852
41.297400,13.401920
41.277891,13.399999
39.777891,13.399999
39.758382,13.401920
39.722334,13.416852
39.694744,13.444442
39.679812,13.480490
37.025028,13.480490
37.025028,13.233332
41.544558,13.233332
Z" /> 
<path style="fill:#000000; fill-opacity:1.000000; stroke:none;fill-rule:evenodd;"
d="M 18.066905,5.350001
18.047875,5.445671
17.993682,5.526777
17.912576,5.580970
17.816905,5.599999
16.116904,5.600000
16.021234,5.580970
15.940128,5.526777
15.885935,5.445671
15.866906,5.350000
15.866905,3.649999
15.885935,3.554329
15.940128,3.473223
16.021234,3.419030
16.116905,3.400001
17.816906,3.400000
17.912576,3.419030
17.993682,3.473223
18.047875,3.554329
18.066904,3.650000
Z" /> 
</g>
<g style="fill:#000000; fill-opacity:1.000000; stroke:none;">
<circle cx="6.806905" cy="4.500000" r="1.100000" /> 
</g>
<g style="fill:#000000; fill-opacity:1.000000; stroke:none;">
<circle cx="10.306905" cy="17.500000" r="1.100000" /> 
<path style="fill:#000000; fill-opacity:1.000000; stroke:none;fill-rule:evenodd;"
d="M 21.566905,18.350001
21.547875,18.445671
21.493682,18.526777
21.412576,18.580970
21.316905,18.599999
19.616904,18.600000
19.521234,18.580970
19.440128,18.526777
19.385935,18.445671
19.366906,18.350000
19.366905,16.649999
19.385935,16.554329
19.440128,16.473223
19.521234,16.419030
19.616905,16.400001
21.316906,16.400000
21.412576,16.419030
21.493682,16.473223
21.547875,16.554329
21.566904,16.650000
Z" /> 
</g>
<g style="fill:#000000; fill-opacity:1.000000; stroke:none;">
<circle cx="35.386905" cy="4.380000" r="0.800000" /> 
</g>
<g style="fill:#000000; fill-opacity:1.000000; stroke:none;">
<circle cx="35.386905" cy="12.000000" r="0.800000" /> 
<path style="fill:#000000; fill-opacity:1.000000; stroke:none;fill-rule:evenodd;"
d="M 4.036905,10.075000
4.036905,8.375000
5.736905,8.375000
5.736905,10.075000
Z" /> 
</g>
<g style="fill:#000000; fill-opacity:1.000000; stroke:none;">
<circle cx="4.886905" cy="11.765000" r="0.850000" /> 
<path style="fill:#000000; fill-opacity:1.000000; stroke:none;fill-rule:evenodd;"
d="M 26.336905,10.492500
24.336905,10.492500
24.336905,8.587500
26.336905,8.587500
Z" /> 
</g>
<g style="fill:none; 
stroke:#000000; stroke-width:1.905000; stroke-opacity:1; 
stroke-linecap:round; stroke-linejoin:round;">
<path d="M25.289405 7.000000
L25.384405 7.000000
" />
<path d="M25.289405 4.460000
L25.384405 4.460000
" />
<path style="fill:#000000; fill-opacity:1.000000; stroke:none;fill-rule:evenodd;"
d="M 39.036905,7.075000
39.036905,5.375000
40.736905,5.375000
40.736905,7.075000
Z" /> 
</g>
<g style="fill:#000000; fill-opacity:1.000000; stroke:none;">
<circle cx="39.886905" cy="8.765000" r="0.850000" /> 
<path style="fill:#000000; fill-opacity:1.000000; stroke:none;fill-rule:evenodd;"
d="M 8.786905,7.399999
8.805935,7.304329
8.860128,7.223223
8.941234,7.169030
9.036905,7.150001
10.736906,7.150000
10.832576,7.169030
10.913682,7.223223
10.967875,7.304329
10.986904,7.400000
10.986905,9.100001
10.967875,9.195671
10.913682,9.276777
10.832576,9.330970
10.736905,9.349999
9.036904,9.350000
8.941234,9.330970
8.860128,9.276777
8.805935,9.195671
8.786906,9.100000
Z" /> 
</g>
<g style="fill:#000000; fill-opacity:1.000000; stroke:none;">
<circle cx="20.046905" cy="8.250000" r="1.100000" /> 
</g>
<g style="fill:#000000; fill-opacity:1.000000; stroke:none;">
<circle cx="31.886905" cy="3.500000" r="0.800000" /> 
</g>
<g style="fill:#000000; fill-opacity:1.000000; stroke:none;">
<circle cx="31.886905" cy="8.500000" r="0.800000" /> 
<path style="fill:#000000; fill-opacity:1.000000; stroke:none;fill-rule:evenodd;"
d="M 8.786905,11.649999
8.805935,11.554329
8.860128,11.473223
8.941234,11.419030
9.036905,11.400001
10.736906,11.400000
10.832576,11.419030
10.913682,11.473223
10.967875,11.554329
10.986904,11.650000
10.986905,13.350001
10.967875,13.445671
10.913682,13.526777
10.832576,13.580970
10.736905,13.599999
9.036904,13.600000
8.941234,13.580970
8.860128,13.526777
8.805935,13.445671
8.786906,13.350000
Z" /> 
</g>
<g style="fill:#000000; fill-opacity:1.000000; stroke:none;">
<circle cx="20.046905" cy="12.500000" r="1.100000" /> 
<path style="fill:#000000; fill-opacity:1.000000; stroke:none;fill-rule:evenodd;"
d="M 31.486905,14.325000
33.286905,14.325000
33.286905,16.125000
31.486905,16.125000
Z" /> 
</g>
<g style="fill:#000000; fill-opacity:1.000000; stroke:none;">
<circle cx="32.386905" cy="17.765000" r="0.900000" /> 
<path style="fill:#000000; fill-opacity:1.000000; stroke:none;fill-rule:evenodd;"
d="M 24.836905,18.482380
24.741234,18.463350
24.660128,18.409157
24.605935,18.328051
24.586905,18.232380
24.586905,17.132380
24.605935,17.036709
24.660128,16.955603
24.741234,16.901410
24.836905,16.882380
25.936905,16.882380
26.032576,16.901410
26.113682,16.955603
26.167875,17.036709
26.186905,17.132380
26.186905,18.232380
26.167875,18.328051
26.113682,18.409157
26.032576,18.463350
25.936905,18.482380
Z" /> 
</g>
<g style="fill:#000000; fill-opacity:1.000000; stroke:none;">
<circle cx="25.386905" cy="15.182380" r="0.800000" /> 
</g>
<g style="fill:#000000; fill-opacity:1.000000; stroke:none;">
<circle cx="28.886905" cy="12.000000" r="0.800000" /> 
</g>
<g style="fill:#000000; fill-opacity:1.000000; stroke:none;">
<circle cx="28.886905" cy="7.000000" r="0.800000" /> 
</g>
<g style="fill:none; 
stroke:#000000; stroke-width:1.700000; stroke-opacity:1; 
stroke-linecap:round; stroke-linejoin:round;">
<path d="M16.966905 4.500000
L16.966905 14.580000
" />
<path d="M16.966905 14.580000
L19.886905 17.500000
" />
<path d="M19.886905 17.500000
L20.466905 17.500000
" />
<path d="M9.886905 8.250000
L9.886905 7.580000
" />
<path d="M9.886905 7.580000
L6.806905 4.500000
" />
<path d="M9.886905 12.500000
L9.886905 17.080000
" />
<path d="M9.886905 17.080000
L10.306905 17.500000
" />
<path d="M25.386905 17.682380
L20.649285 17.682380
" />
<path d="M20.649285 17.682380
L20.466905 17.500000
" />
<path d="M25.336905 7.000000
L30.386905 7.000000
" />
<path d="M30.386905 7.000000
L31.886905 8.500000
" />
<path d="M25.336905 9.540000
L26.926905 9.540000
" />
<path d="M26.926905 9.540000
L28.886905 11.500000
" />
<path d="M28.886905 11.500000
L28.886905 15.500000
" />
<path d="M28.886905 15.500000
L26.704525 17.682380
" />
<path d="M26.704525 17.682380
L25.386905 17.682380
" />
<path d="M39.886905 8.765000
L32.151905 8.765000
" />
<path d="M37.231905 6.225000
L39.886905 6.225000
" />
<path d="M37.231905 6.225000
L35.386905 4.380000
" />
<path d="M31.886905 3.500000
L34.506905 3.500000
" />
<path d="M34.506905 3.500000
L35.386905 4.380000
" />
<path d="M32.386905 15.225000
L32.386905 9.000000
" />
<path d="M32.386905 9.000000
L31.886905 8.500000
" />
<path d="M35.386905 12.000000
L35.386905 16.500000
" />
<path d="M35.386905 16.500000
L34.121905 17.765000
" />
<path d="M34.121905 17.765000
L32.386905 17.765000
" />
<path d="M31.886905 3.500000
L28.886905 3.500000
" />
<path d="M28.886905 3.500000
L27.926905 4.460000
" />
<path d="M27.926905 4.460000
L25.336905 4.460000
" />
<path d="M20.046905 12.500000
L21.886905 12.500000
" />
<path d="M21.886905 12.500000
L24.569285 15.182380
" />
<path d="M24.569285 15.182380
L25.386905 15.182380
" />
<path d="M22.886905 7.000000
L21.636905 8.250000
" />
<path d="M25.336905 7.000000
L22.886905 7.000000
" />
<path d="M21.636905 8.250000
L20.046905 8.250000
" />
<path d="M8.911905 9.225000
L9.886905 8.250000
" />
<path d="M4.886905 9.225000
L8.911905 9.225000
" />
<path d="M9.151905 11.765000
L9.886905 12.500000
" />
<path d="M20.046905 8.250000
L20.046905 12.500000
" />
<path d="M4.886905 11.765000
L9.151905 11.765000
" />
<path style="fill:#000000; fill-opacity:1.000000; stroke:none;fill-rule:evenodd;"
d="M 41.829444,1.020185
41.875199,1.072989
41.886405,1.124500
41.886405,20.875500
41.866720,20.942539
41.813916,20.988294
41.762405,20.999500
3.511405,20.999500
3.444366,20.979815
3.398611,20.927011
3.387405,20.875500
3.387405,20.606145
37.184789,20.606145
41.384649,20.606145
41.384649,13.394999
37.184789,13.394999
37.184789,20.606145
3.387405,20.606145
3.387405,19.570430
4.096706,19.570430
5.810046,19.570430
5.810046,13.643330
4.096706,13.643330
4.096706,19.570430
3.387405,19.570430
3.387405,12.303226
3.407090,12.236187
3.459894,12.190432
3.529052,12.180488
3.592608,12.209513
3.629336,12.264908
3.635349,12.283414
3.731856,12.472820
3.856795,12.644786
4.007118,12.795109
4.179084,12.920048
4.179086,12.920049
4.179089,12.920051
4.368493,13.016557
4.570662,13.082246
4.780618,13.115500
8.162405,13.115500
8.229444,13.135185
8.275199,13.187989
8.286405,13.239500
8.286405,13.400017
8.296905,13.502796
8.296906,13.502798
8.352091,13.669335
8.429139,13.794250
8.444194,13.818657
8.500086,13.874549
8.533571,13.935872
8.536405,13.962230
8.536405,17.186286
8.569658,17.396239
8.635349,17.598414
8.723208,17.770848
8.735196,17.807744
8.745814,17.874782
8.745815,17.874785
8.823664,18.114379
8.919570,18.302606
8.938037,18.338848
9.086106,18.542649
9.086110,18.542654
9.264250,18.720794
9.264255,18.720798
9.419029,18.833247
9.468060,18.868870
9.611089,18.941747
9.692521,18.983239
9.692523,18.983239
9.692526,18.983241
9.932120,19.061090
10.180943,19.100500
10.180944,19.100500
10.432866,19.100500
10.432867,19.100500
10.681690,19.061090
10.921284,18.983241
11.145750,18.868870
11.349561,18.720793
11.527698,18.542656
11.675775,18.338845
11.790146,18.114379
11.867995,17.874785
11.907405,17.625962
11.907405,17.374038
11.867995,17.125215
11.790146,16.885621
11.790144,16.885618
11.790144,16.885616
11.747577,16.802075
11.675775,16.661155
11.635911,16.606287
11.527703,16.457350
11.527699,16.457345
11.349563,16.279209
11.349557,16.279204
11.288520,16.234858
11.245854,16.179528
11.237405,16.134540
11.237405,13.962230
11.257090,13.895191
11.273724,13.874549
11.279831,13.868442
11.329617,13.818656
11.421719,13.669335
11.476904,13.502798
11.487405,13.400010
11.487405,11.599990
11.476904,11.497202
11.421719,11.330665
11.329617,11.181344
11.205561,11.057288
11.063876,10.969896
11.056242,10.965187
11.056237,10.965185
11.054768,10.964698
10.889703,10.910001
10.889701,10.910000
10.786922,10.899500
10.786915,10.899500
10.247664,10.899500
10.180625,10.879815
10.159983,10.863182
10.141750,10.844949
10.031697,10.734896
10.031693,10.734893
10.031689,10.734889
9.859725,10.609951
9.712955,10.535168
9.662159,10.487193
9.645364,10.419372
9.667901,10.353237
9.696365,10.324366
9.706048,10.317331
9.791697,10.255104
9.942009,10.104792
9.942010,10.104790
9.949066,10.097734
9.949071,10.097727
10.159982,9.886816
10.221304,9.853334
10.247662,9.850500
10.786910,9.850500
10.786915,9.850500
10.889703,9.839999
11.056240,9.784814
11.205561,9.692712
11.329617,9.568656
11.421719,9.419335
11.476904,9.252798
11.487405,9.150010
11.487405,7.349990
11.476904,7.247202
11.421719,7.080665
11.329617,6.931344
11.205561,6.807288
11.056240,6.715186
10.898304,6.662851
10.887207,6.656006
10.877883,6.653978
10.849628,6.632826
10.842989,6.626187
10.803280,6.586479
10.766697,6.549896
10.766693,6.549893
8.400931,4.184131
8.370378,4.129563
8.369501,4.129849
8.368067,4.125435
8.368033,4.125375
8.367996,4.125224
8.367995,4.125215
8.290146,3.885621
8.175775,3.661155
8.131336,3.599990
8.131330,3.599982
15.366405,3.599982
15.366405,5.400017
15.376905,5.502796
15.432090,5.669332
15.432092,5.669337
15.441204,5.684109
15.519357,5.810816
15.524194,5.818657
15.580086,5.874549
15.613571,5.935872
15.616405,5.962230
15.616405,14.686286
15.646763,14.877962
15.649659,14.896243
15.700042,15.051306
15.715349,15.098414
15.811856,15.287820
15.936794,15.459784
15.936798,15.459788
15.936801,15.459792
16.016459,15.539450
16.091443,15.614434
16.091454,15.614444
18.834003,18.356993
18.867488,18.418316
18.869680,18.432071
18.876905,18.502795
18.876906,18.502798
18.921618,18.637730
18.932090,18.669332
18.932092,18.669337
18.958707,18.712487
19.024193,18.818656
19.148249,18.942712
19.297570,19.034814
19.464107,19.089999
19.566895,19.100500
19.566900,19.100500
21.366910,19.100500
21.366915,19.100500
21.469703,19.089999
21.623082,19.039173
21.662086,19.032880
26.810811,19.032880
26.810812,19.032880
27.020768,18.999626
27.222937,18.933937
27.412341,18.837431
27.440123,18.817246
27.584317,18.712484
27.734629,18.562172
27.734630,18.562170
27.741690,18.555110
27.741695,18.555103
28.642021,17.654778
30.986405,17.654778
30.986405,17.875221
31.020890,18.092952
31.089008,18.302603
31.089009,18.302606
31.189092,18.499025
31.318657,18.677358
31.318661,18.677363
31.474541,18.833243
31.474546,18.833247
31.594023,18.920051
31.652883,18.962815
31.758353,19.016555
31.849298,19.062895
31.849301,19.062896
31.908856,19.082246
32.058954,19.131015
32.276683,19.165500
32.276684,19.165500
32.497126,19.165500
32.497127,19.165500
32.714856,19.131015
32.736212,19.124076
32.743929,19.121569
32.782247,19.115500
34.228191,19.115500
34.228192,19.115500
34.438148,19.082246
34.640317,19.016557
34.829721,18.920051
34.900166,18.868870
35.001697,18.795104
35.152009,18.644792
35.152010,18.644790
35.159070,18.637730
35.159075,18.637723
36.417009,17.379792
36.417011,17.379788
36.417014,17.379786
36.541953,17.207820
36.541952,17.207820
36.541956,17.207816
36.638462,17.018412
36.704151,16.816243
36.737405,16.606287
36.737405,16.393713
36.737405,12.423141
37.280120,12.423141
41.493690,12.423141
41.493690,10.709801
37.280120,10.709801
37.280120,12.423141
36.737405,12.423141
36.737405,11.893713
36.704151,11.683757
36.638462,11.481588
36.541956,11.292184
36.541954,11.292181
36.541953,11.292179
36.417014,11.120213
36.266691,10.969890
36.094725,10.844951
35.991164,10.792184
35.905317,10.748443
35.703148,10.682754
35.703146,10.682753
35.703145,10.682753
35.541862,10.657208
35.493192,10.649500
35.280618,10.649500
35.231947,10.657208
35.070665,10.682753
35.070662,10.682754
34.910396,10.734828
34.868490,10.748444
34.679084,10.844951
34.507118,10.969890
34.356795,11.120213
34.231856,11.292179
34.135349,11.481585
34.069658,11.683760
34.036405,11.893713
34.036405,15.889241
34.027760,15.918681
34.021237,15.948668
34.017482,15.953683
34.016720,15.956280
34.000086,15.976922
33.998586,15.978422
33.937263,16.011907
33.867571,16.006923
33.811638,15.965051
33.787221,15.899587
33.786905,15.890741
33.786905,15.475000
32.762183,15.475000
32.806238,15.398694
32.836905,15.284244
32.836905,15.165756
32.806238,15.051306
32.762183,14.975000
33.786905,14.975000
33.786905,14.277172
33.786904,14.277155
33.780503,14.217627
33.780501,14.217620
33.730259,14.082913
33.730255,14.082906
33.644095,13.967812
33.644092,13.967809
33.528998,13.881649
33.528991,13.881645
33.394284,13.831403
33.394277,13.831401
33.334749,13.825000
32.636905,13.825000
32.636905,14.849722
32.560599,14.805667
32.446149,14.775000
32.327661,14.775000
32.213211,14.805667
32.136905,14.849722
32.136905,13.825000
31.439060,13.825000
31.379532,13.831401
31.379525,13.831403
31.244818,13.881645
31.244811,13.881649
31.129717,13.967809
31.129714,13.967812
31.043554,14.082906
31.043550,14.082913
30.993308,14.217620
30.993306,14.217627
30.986905,14.277155
30.986905,14.975000
32.011627,14.975000
31.967572,15.051306
31.936905,15.165756
31.936905,15.284244
31.967572,15.398694
32.011627,15.475000
30.986905,15.475000
30.986905,16.172844
30.993306,16.232372
30.993308,16.232379
31.043550,16.367086
31.043554,16.367093
31.129714,16.482187
31.129717,16.482190
31.244811,16.568350
31.244818,16.568354
31.324873,16.598213
31.380807,16.640084
31.405224,16.705549
31.390372,16.773822
31.369222,16.802075
31.318661,16.852636
31.318657,16.852641
31.189092,17.030974
31.089009,17.227393
31.089008,17.227396
31.020890,17.437047
30.986405,17.654778
28.642021,17.654778
29.917009,16.379792
29.917011,16.379788
29.917014,16.379786
30.041953,16.207820
30.041952,16.207820
30.041956,16.207816
30.138462,16.018412
30.204151,15.816243
30.237405,15.606287
30.237405,15.393714
30.237405,11.611422
30.237406,11.611397
30.237406,11.393715
30.237406,11.393714
30.204151,11.183757
30.138462,10.981588
30.041956,10.792184
30.041500,10.791557
29.993649,10.725696
29.917014,10.620214
29.917011,10.620211
29.917009,10.620208
29.766697,10.469896
29.766696,10.469895
29.763585,10.466784
29.763570,10.466770
27.961349,8.664549
27.961340,8.664539
27.884509,8.587708
27.806697,8.509896
27.806693,8.509893
27.806689,8.509889
27.652248,8.397682
30.586905,8.397682
30.586905,8.602317
30.618914,8.804417
30.682149,8.999031
30.775046,9.181350
30.775052,9.181359
30.807428,9.225921
30.807429,9.225922
31.486905,8.546446
31.486905,8.552661
31.514164,8.654394
31.566825,8.745606
31.641299,8.820080
31.732511,8.872741
31.834244,8.900000
31.840458,8.900000
31.160981,9.579474
31.205555,9.611859
31.387873,9.704755
31.582487,9.767990
31.784588,9.800000
31.989222,9.800000
32.191322,9.767990
32.354160,9.715080
32.385936,9.704755
32.568254,9.611859
32.612826,9.579474
31.933352,8.900000
31.939566,8.900000
32.041299,8.872741
32.132511,8.820080
32.206985,8.745606
32.259646,8.654394
32.286905,8.552661
32.286905,8.546447
32.966379,9.225921
32.998764,9.181349
33.091660,8.999031
33.154895,8.804417
33.181810,8.634483
33.181810,8.634482
33.186905,8.602316
33.186905,8.397682
33.154895,8.195582
33.091660,8.000968
32.998764,7.818650
32.966379,7.774077
32.966379,7.774076
32.286905,8.453551
32.286905,8.447339
32.259646,8.345606
32.206985,8.254394
32.132511,8.179920
32.041299,8.127259
31.939566,8.100000
31.933351,8.100000
32.612827,7.420524
32.612826,7.420523
32.568264,7.388147
32.568255,7.388141
32.385936,7.295244
32.191322,7.232009
31.989222,7.200000
31.784588,7.200000
31.582487,7.232009
31.387873,7.295244
31.205549,7.388143
31.160982,7.420523
31.160982,7.420524
31.840459,8.100000
31.834244,8.100000
31.732511,8.127259
31.641299,8.179920
31.566825,8.254394
31.514164,8.345606
31.486905,8.447339
31.486905,8.453553
30.807429,7.774077
30.807428,7.774077
30.775048,7.818644
30.682149,8.000968
30.618914,8.195582
30.586905,8.397682
27.652248,8.397682
27.634725,8.384951
27.445319,8.288444
27.445318,8.288443
27.445317,8.288443
27.243148,8.222754
27.243146,8.222753
27.243145,8.222753
27.071592,8.195582
27.033192,8.189500
27.033191,8.189500
26.681682,8.189500
26.662469,8.183858
26.642459,8.183133
26.620046,8.171401
26.614643,8.169815
26.610907,8.167318
26.609128,8.166081
26.579236,8.143704
26.574272,8.141852
26.574270,8.141851
26.550879,8.133127
26.494945,8.091257
26.470527,8.025792
26.485378,7.957519
26.493893,7.944059
26.626693,7.761276
26.730487,7.557570
26.801139,7.340128
26.815414,7.250000
25.827653,7.250000
25.849423,7.212292
25.886905,7.072409
25.886905,6.927591
25.849423,6.787708
25.827653,6.750000
26.815414,6.750000
26.801139,6.659871
26.730487,6.442429
26.626693,6.238723
26.492307,6.053757
26.460731,6.022181
26.427246,5.960858
26.432230,5.891166
26.474102,5.835233
26.539566,5.810816
26.548412,5.810500
28.035499,5.810500
28.102538,5.830185
28.148293,5.882989
28.153627,5.913169
28.840459,6.600000
28.834244,6.600000
28.732511,6.627259
28.641299,6.679920
28.566825,6.754394
28.514164,6.845606
28.486905,6.947339
28.486905,6.953553
27.807429,6.274077
27.807428,6.274077
27.775048,6.318644
27.682149,6.500968
27.618914,6.695582
27.586905,6.897682
27.586905,7.102317
27.618914,7.304417
27.682149,7.499031
27.775046,7.681350
27.775052,7.681359
27.807428,7.725921
27.807429,7.725922
28.486905,7.046446
28.486905,7.052661
28.514164,7.154394
28.566825,7.245606
28.641299,7.320080
28.732511,7.372741
28.834244,7.400000
28.840458,7.400000
28.160981,8.079474
28.205555,8.111859
28.387873,8.204755
28.582487,8.267990
28.784588,8.300000
28.989222,8.300000
29.176467,8.270343
29.191322,8.267990
29.385936,8.204755
29.568254,8.111859
29.612826,8.079474
28.933352,7.400000
28.939566,7.400000
29.041299,7.372741
29.132511,7.320080
29.206985,7.245606
29.259646,7.154394
29.286905,7.052661
29.286905,7.046447
29.966379,7.725921
29.998764,7.681349
30.091660,7.499029
30.114264,7.429465
30.114264,7.429464
30.154895,7.304417
30.186905,7.102317
30.186905,6.897682
30.154895,6.695582
30.091660,6.500968
29.998764,6.318650
29.966379,6.274077
29.966379,6.274076
29.286905,6.953551
29.286905,6.947339
29.259646,6.845606
29.206985,6.754394
29.132511,6.679920
29.041299,6.627259
28.939566,6.600000
28.933351,6.600000
29.612827,5.920524
29.612826,5.920523
29.568264,5.888147
29.568255,5.888141
29.385936,5.795244
29.191322,5.732009
28.989222,5.700000
28.896163,5.700000
28.874917,5.693761
28.852831,5.692182
28.842047,5.684109
28.829124,5.680315
28.814623,5.663580
28.796897,5.650311
28.792189,5.637690
28.783369,5.627511
28.780217,5.605594
28.772479,5.584847
28.775341,5.571685
28.773425,5.558353
28.782623,5.538211
28.787330,5.516574
28.800600,5.498847
28.802450,5.494797
28.808481,5.488320
28.957009,5.339792
28.957011,5.339788
29.409981,4.886819
29.471304,4.853334
29.497662,4.850500
31.780618,4.850500
33.896148,4.850500
33.963187,4.870185
33.983829,4.886819
36.198675,7.101665
36.198689,7.101680
36.201800,7.104791
36.201801,7.104792
36.352113,7.255104
36.352116,7.255106
36.352119,7.255109
36.419987,7.304417
36.510541,7.370207
36.510542,7.370209
36.524084,7.380048
36.524086,7.380049
36.524089,7.380051
36.713493,7.476557
36.915662,7.542246
37.125618,7.575500
37.125619,7.575500
38.999597,7.575500
39.066636,7.595185
39.087278,7.611819
39.757496,8.282037
39.693912,8.299075
39.579898,8.364901
39.486806,8.457993
39.420980,8.572007
39.403942,8.635591
38.771633,8.003282
38.771632,8.003282
38.732285,8.057439
38.635809,8.246782
38.570147,8.448869
38.570147,8.448872
38.536905,8.658753
38.536905,8.871246
38.570147,9.081127
38.570147,9.081130
38.635809,9.283217
38.732280,9.472550
38.771633,9.526716
39.403942,8.894408
39.420980,8.957993
39.486806,9.072007
39.579898,9.165099
39.693912,9.230925
39.757495,9.247962
39.125187,9.880269
39.125187,9.880270
39.179354,9.919624
39.368687,10.016095
39.570775,10.081757
39.780659,10.115000
39.993151,10.115000
40.203032,10.081757
40.203035,10.081757
40.405122,10.016095
40.594459,9.919622
40.648621,9.880270
40.648622,9.880270
40.016313,9.247962
40.079898,9.230925
40.193912,9.165099
40.287004,9.072007
40.352830,8.957993
40.369867,8.894409
41.002175,9.526717
41.002175,9.526716
41.041527,9.472554
41.138000,9.283217
41.203662,9.081130
41.203662,9.081127
41.236905,8.871246
41.236905,8.658753
41.203662,8.448872
41.203662,8.448869
41.138000,8.246782
41.041529,8.057449
41.002175,8.003282
41.002174,8.003282
40.369867,8.635590
40.352830,8.572007
40.287004,8.457993
40.193912,8.364901
40.079898,8.299075
40.016314,8.282037
40.686532,7.611818
40.747855,7.578333
40.774213,7.575499
40.784776,7.575499
40.784777,7.575499
40.844388,7.569091
40.979236,7.518796
41.094451,7.432546
41.180701,7.317331
41.230996,7.182483
41.237405,7.122873
41.237405,6.229500
41.237405,6.118713
41.237405,6.111118
41.237404,6.111100
41.237404,5.327129
41.237403,5.327123
41.230996,5.267516
41.180702,5.132671
41.180698,5.132664
41.094452,5.017455
41.094449,5.017452
40.979240,4.931206
40.979233,4.931202
40.844387,4.880908
40.844388,4.880908
40.784788,4.874501
40.784786,4.874500
40.784778,4.874500
40.784770,4.874500
37.842662,4.874500
37.775623,4.854815
37.754981,4.838181
36.706474,3.789674
37.137902,3.789674
41.420476,3.789674
41.420476,2.077070
37.137902,2.077070
37.137902,3.789674
36.706474,3.789674
35.541349,2.624549
35.541340,2.624539
35.537009,2.620208
35.386697,2.469896
35.386693,2.469893
35.386689,2.469889
35.214725,2.344951
35.025319,2.248444
35.025318,2.248443
35.025317,2.248443
34.823148,2.182754
34.823146,2.182753
34.823145,2.182753
34.661862,2.157208
34.613192,2.149500
31.993192,2.149500
28.780618,2.149500
28.731947,2.157208
28.570665,2.182753
28.368490,2.248444
28.179084,2.344951
28.007118,2.469890
28.007114,2.469894
27.856798,2.620211
27.403829,3.073181
27.342506,3.106666
27.316148,3.109500
25.949640,3.109500
25.911322,3.103431
25.724652,3.042778
25.574056,3.018926
25.498759,3.007000
25.175051,3.007000
25.099754,3.018926
24.949158,3.042778
24.949155,3.042778
24.731649,3.113450
24.527866,3.217283
24.442644,3.279201
24.342839,3.351714
24.342837,3.351716
24.342836,3.351716
24.181121,3.513431
24.181121,3.513432
24.181119,3.513434
24.123385,3.592896
24.046688,3.698461
23.942855,3.902244
23.872183,4.119750
23.872183,4.119753
23.836405,4.345646
23.836405,4.574353
23.872183,4.800246
23.872183,4.800249
23.942855,5.017755
23.942857,5.017758
24.046688,5.221538
24.181119,5.406566
24.342839,5.568286
24.427769,5.629991
24.470434,5.685321
24.476413,5.754935
24.443807,5.816730
24.427769,5.830627
24.343162,5.892097
24.181502,6.053757
24.047116,6.238723
23.943322,6.442429
23.872670,6.659871
23.858396,6.750000
24.846157,6.750000
24.824387,6.787708
24.786905,6.927591
24.786905,7.072409
24.824387,7.212292
24.846157,7.250000
23.858396,7.250000
23.872670,7.340128
23.943322,7.557570
24.047118,7.761279
24.179916,7.944060
24.203396,8.009866
24.187571,8.077920
24.137465,8.126615
24.122931,8.133127
24.094576,8.143702
24.094569,8.143706
23.979360,8.229952
23.979357,8.229955
23.893111,8.345164
23.893107,8.345171
23.842813,8.480017
23.836406,8.539616
23.836405,8.539635
23.836405,10.540370
23.836406,10.540376
23.842813,10.599983
23.893107,10.734828
23.893111,10.734835
23.979357,10.850044
23.979360,10.850047
24.094569,10.936293
24.094576,10.936297
24.229422,10.986591
24.229421,10.986591
24.236349,10.987335
24.289032,10.993000
26.384777,10.992999
26.402746,10.991067
26.471505,11.003470
26.503685,11.026675
27.500086,12.023076
27.533571,12.084399
27.536405,12.110757
27.536405,14.889242
27.516720,14.956281
27.500086,14.976923
26.858723,15.618285
26.797400,15.651770
26.727708,15.646786
26.671775,15.604914
26.647358,15.539450
26.653115,15.492274
26.654895,15.486797
26.686905,15.284697
26.686905,15.080062
26.654895,14.877962
26.591660,14.683348
26.498764,14.501030
26.466379,14.456457
26.466379,14.456456
25.786905,15.135933
25.786905,15.129719
25.759646,15.027986
25.706985,14.936774
25.632511,14.862300
25.541299,14.809639
25.439566,14.782380
25.433351,14.782380
26.112827,14.102904
26.112826,14.102903
26.068264,14.070527
26.068255,14.070521
25.885936,13.977624
25.691322,13.914389
25.489222,13.882380
25.284588,13.882380
25.082487,13.914389
24.887873,13.977624
24.705549,14.070523
24.660982,14.102903
24.660982,14.102904
25.340459,14.782380
25.334244,14.782380
25.232511,14.809639
25.141299,14.862300
25.066825,14.936774
25.014164,15.027986
24.986905,15.129719
24.986905,15.135933
24.307429,14.456457
24.307428,14.456457
24.275048,14.501024
24.182149,14.683348
24.118914,14.877962
24.086905,15.080062
24.086905,15.284697
24.118914,15.486797
24.182149,15.681411
24.275046,15.863730
24.275052,15.863739
24.307428,15.908301
24.307429,15.908302
24.986905,15.228826
24.986905,15.235041
25.014164,15.336774
25.066825,15.427986
25.141299,15.502460
25.232511,15.555121
25.334244,15.582380
25.340458,15.582380
24.627275,16.295561
24.565952,16.329046
24.539594,16.331880
22.071675,16.331880
22.004636,16.312195
21.966137,16.272978
21.909617,16.181344
21.785561,16.057288
21.636240,15.965186
21.469703,15.910001
21.469701,15.910000
21.366922,15.899500
21.366915,15.899500
20.247662,15.899500
20.180623,15.879815
20.159981,15.863181
18.353724,14.056924
18.339020,14.029996
18.322428,14.004178
18.321536,13.997977
18.320239,13.995601
18.317405,13.969243
18.317405,13.137764
18.337090,13.070725
18.389894,13.024970
18.459052,13.015026
18.522608,13.044051
18.559337,13.099448
18.564125,13.114186
18.678462,13.338583
18.752653,13.440697
18.752653,13.440698
19.523117,12.670234
19.534387,12.712292
19.606795,12.837708
19.709197,12.940110
19.834613,13.012518
19.876670,13.023787
19.106205,13.794250
19.208321,13.868442
19.432720,13.982780
19.672235,14.060602
19.920977,14.100000
20.172833,14.100000
20.421574,14.060602
20.508892,14.032232
20.661089,13.982780
20.885480,13.868446
20.885486,13.868442
20.987602,13.794250
20.987603,13.794250
20.217139,13.023787
20.259197,13.012518
20.384613,12.940110
20.487015,12.837708
20.559423,12.712292
20.570692,12.670235
21.341155,13.440698
21.341155,13.440697
21.415347,13.338581
21.415351,13.338575
21.529685,13.114184
21.607507,12.874669
21.646905,12.625928
21.646905,12.374071
21.607507,12.125330
21.529685,11.885815
21.415347,11.661416
21.341155,11.559301
21.341155,11.559300
20.570692,12.329764
20.559423,12.287708
20.487015,12.162292
20.384613,12.059890
20.259197,11.987482
20.217137,11.976212
20.987603,11.205748
20.885488,11.131557
20.661089,11.017219
20.421574,10.939397
20.172833,10.900000
19.920977,10.900000
19.672235,10.939397
19.432720,11.017219
19.208318,11.131559
19.106206,11.205747
19.106205,11.205748
19.876670,11.976212
19.834613,11.987482
19.709197,12.059890
19.606795,12.162292
19.534387,12.287708
19.523117,12.329765
18.752653,11.559300
18.752652,11.559301
18.678464,11.661413
18.564124,11.885815
18.559336,11.900553
18.519899,11.958229
18.455540,11.985427
18.386694,11.973512
18.335218,11.926268
18.317405,11.862235
18.317405,8.887764
18.337090,8.820725
18.389894,8.774970
18.459052,8.765026
18.522608,8.794051
18.559337,8.849448
18.564125,8.864186
18.678462,9.088583
18.752653,9.190697
18.752653,9.190698
19.523117,8.420234
19.534387,8.462292
19.606795,8.587708
19.709197,8.690110
19.834613,8.762518
19.876670,8.773787
19.106205,9.544250
19.208321,9.618442
19.432720,9.732780
19.672235,9.810602
19.920977,9.850000
20.172833,9.850000
20.421574,9.810602
20.661089,9.732780
20.885480,9.618446
20.885486,9.618442
20.987602,9.544250
20.987603,9.544250
20.217139,8.773787
20.259197,8.762518
20.384613,8.690110
20.487015,8.587708
20.559423,8.462292
20.570692,8.420235
21.341155,9.190698
21.341155,9.190697
21.415347,9.088581
21.415351,9.088575
21.529685,8.864184
21.607507,8.624669
21.646905,8.375928
21.646905,8.124071
21.607507,7.875330
21.529685,7.635815
21.415347,7.411416
21.341155,7.309301
21.341155,7.309300
20.570692,8.079764
20.559423,8.037708
20.487015,7.912292
20.384613,7.809890
20.259197,7.737482
20.217137,7.726212
20.987603,6.955748
20.885488,6.881557
20.661089,6.767219
20.421574,6.689397
20.172833,6.650000
19.920977,6.650000
19.672235,6.689397
19.432720,6.767219
19.208318,6.881559
19.106206,6.955747
19.106205,6.955748
19.876670,7.726212
19.834613,7.737482
19.709197,7.809890
19.606795,7.912292
19.534387,8.037708
19.523117,8.079765
18.752653,7.309300
18.752652,7.309301
18.678464,7.411413
18.564124,7.635815
18.559336,7.650553
18.519899,7.708229
18.455540,7.735427
18.386694,7.723512
18.335218,7.676268
18.317405,7.612235
18.317405,5.962230
18.337090,5.895191
18.353724,5.874549
18.359406,5.868867
18.409617,5.818656
18.501719,5.669335
18.556904,5.502798
18.567405,5.400010
18.567405,3.599990
18.556904,3.497202
18.501719,3.330665
18.409617,3.181344
18.285561,3.057288
18.136240,2.965186
17.969703,2.910001
17.969701,2.910000
17.866922,2.899500
17.866915,2.899500
16.066895,2.899500
16.066887,2.899500
15.964108,2.910000
15.964107,2.910001
15.881574,2.937349
15.797572,2.965185
15.797567,2.965187
15.648247,3.057289
15.524194,3.181342
15.432092,3.330662
15.432091,3.330665
15.376906,3.497202
15.376906,3.497203
15.376905,3.497203
15.366405,3.599982
8.131330,3.599982
8.027703,3.457350
8.027699,3.457345
7.849559,3.279205
7.849554,3.279201
7.645753,3.131132
7.645752,3.131131
7.645750,3.131130
7.532019,3.073181
7.421288,3.016760
7.181690,2.938910
6.932867,2.899500
6.680943,2.899500
6.614643,2.910001
6.432119,2.938910
6.192521,3.016760
5.968056,3.131132
5.764255,3.279201
5.764250,3.279205
5.586110,3.457345
5.586106,3.457350
5.438037,3.661151
5.323665,3.885616
5.245815,4.125214
5.206405,4.374038
5.206405,4.625961
5.245815,4.874785
5.323665,5.114383
5.378264,5.221538
5.434912,5.332716
5.438037,5.338848
5.586106,5.542649
5.586110,5.542654
5.764250,5.720794
5.764255,5.720798
5.942022,5.849952
5.968060,5.868870
6.192526,5.983241
6.432120,6.061090
6.432129,6.061091
6.432280,6.061128
6.432340,6.061162
6.436754,6.062596
6.436468,6.063473
6.491036,6.094026
8.059829,7.662819
8.093314,7.724142
8.088330,7.793834
8.046458,7.849767
7.980994,7.874184
7.972148,7.874500
3.989034,7.874500
3.989028,7.874501
3.929421,7.880908
3.794576,7.931202
3.794569,7.931206
3.679360,8.017452
3.679357,8.017455
3.610671,8.109208
3.554737,8.151079
3.485046,8.156063
3.423723,8.122577
3.390239,8.061254
3.387405,8.034897
3.387405,1.124500
3.407090,1.057461
3.459894,1.011706
3.511405,1.000500
41.762405,1.000500
Z" /> 
<path style="fill:none; 
stroke:#000000; stroke-width:0.050000; stroke-opacity:1; 
stroke-linecap:round; stroke-linejoin:round;fill:none"
d="M 2.886905,0.500000
42.386905,0.500000
42.386905,21.500000
2.886905,21.500000
Z" /> 
</g>
<g style="fill:#FFFFFF; fill-opacity:1.000000; stroke:none;">
<circle cx="16.966905" cy="4.500000" r="0.175000" /> 
</g>
<g style="fill:#FFFFFF; fill-opacity:1.000000; stroke:none;">
<circle cx="6.806905" cy="4.500000" r="0.175000" /> 
</g>
<g style="fill:#FFFFFF; fill-opacity:1.000000; stroke:none;">
<circle cx="10.306905" cy="17.500000" r="0.175000" /> 
</g>
<g style="fill:#FFFFFF; fill-opacity:1.000000; stroke:none;">
<circle cx="20.466905" cy="17.500000" r="0.175000" /> 
</g>
<g style="fill:#FFFFFF; fill-opacity:1.000000; stroke:none;">
<circle cx="35.386905" cy="4.380000" r="0.175000" /> 
</g>
<g style="fill:#FFFFFF; fill-opacity:1.000000; stroke:none;">
<circle cx="35.386905" cy="12.000000" r="0.175000" /> 
</g>
<g style="fill:#FFFFFF; fill-opacity:1.000000; stroke:none;">
<circle cx="4.886905" cy="9.225000" r="0.175000" /> 
</g>
<g style="fill:#FFFFFF; fill-opacity:1.000000; stroke:none;">
<circle cx="4.886905" cy="11.765000" r="0.175000" /> 
</g>
<g style="fill:#FFFFFF; fill-opacity:1.000000; stroke:none;">
<circle cx="25.336905" cy="9.540000" r="0.175000" /> 
</g>
<g style="fill:#FFFFFF; fill-opacity:1.000000; stroke:none;">
<circle cx="25.336905" cy="7.000000" r="0.175000" /> 
</g>
<g style="fill:#FFFFFF; fill-opacity:1.000000; stroke:none;">
<circle cx="25.336905" cy="4.460000" r="0.175000" /> 
</g>
<g style="fill:#FFFFFF; fill-opacity:1.000000; stroke:none;">
<circle cx="39.886905" cy="6.225000" r="0.175000" /> 
</g>
<g style="fill:#FFFFFF; fill-opacity:1.000000; stroke:none;">
<circle cx="39.886905" cy="8.765000" r="0.175000" /> 
</g>
<g style="fill:#FFFFFF; fill-opacity:1.000000; stroke:none;">
<circle cx="9.886905" cy="8.250000" r="0.175000" /> 
</g>
<g style="fill:#FFFFFF; fill-opacity:1.000000; stroke:none;">
<circle cx="20.046905" cy="8.250000" r="0.175000" /> 
</g>
<g style="fill:#FFFFFF; fill-opacity:1.000000; stroke:none;">
<circle cx="31.886905" cy="3.500000" r="0.175000" /> 
</g>
<g style="fill:#FFFFFF; fill-opacity:1.000000; stroke:none;">
<circle cx="31.886905" cy="8.500000" r="0.175000" /> 
</g>
<g style="fill:#FFFFFF; fill-opacity:1.000000; stroke:none;">
<circle cx="9.886905" cy="12.500000" r="0.175000" /> 
</g>
<g style="fill:#FFFFFF; fill-opacity:1.000000; stroke:none;">
<circle cx="20.046905" cy="12.500000" r="0.175000" /> 
</g>
<g style="fill:#FFFFFF; fill-opacity:1.000000; stroke:none;">
<circle cx="32.386905" cy="15.225000" r="0.175000" /> 
</g>
<g style="fill:#FFFFFF; fill-opacity:1.000000; stroke:none;">
<circle cx="32.386905" cy="17.765000" r="0.175000" /> 
</g>
<g style="fill:#FFFFFF; fill-opacity:1.000000; stroke:none;">
<circle cx="25.386905" cy="17.682380" r="0.175000" /> 
</g>
<g style="fill:#FFFFFF; fill-opacity:1.000000; stroke:none;">
<circle cx="25.386905" cy="15.182380" r="0.175000" /> 
</g>
<g style="fill:#FFFFFF; fill-opacity:1.000000; stroke:none;">
<circle cx="28.886905" cy="12.000000" r="0.175000" /> 
</g>
<g style="fill:#FFFFFF; fill-opacity:1.000000; stroke:none;">
<circle cx="28.886905" cy="7.000000" r="0.175000" /> 
</g> 
</svg>
